<svg role="img" viewBox="0 0 500 500" xmlns="http://www.w3.org/2000/svg" id="Geeksforgeeks--Streamline-Simple-Icons" height="500" width="500">
  <desc>
    Geeksforgeeks Streamline Icon: https://streamlinehq.com
  </desc>
  <title>GeeksforGeeks</title>
  <path d="M446.87499999999994 298.22916666666663c-2.979166666666666 5.833333333333334 -6.958333333333333 11.083333333333334 -11.770833333333332 15.520833333333332a76.89583333333333 76.89583333333333 0 0 1 -23 14.479166666666664 93.95833333333333 93.95833333333333 0 0 1 -64.91666666666667 -0.3333333333333333 78.95833333333333 78.95833333333333 0 0 1 -44.47916666666666 -43.291666666666664 74.39583333333333 74.39583333333333 0 0 1 -2.7083333333333335 -7.354166666666666h154.54166666666666a88.74999999999999 88.74999999999999 0 0 1 -7.666666666666666 21zm-249.79166666666666 -13.625a79.02083333333333 79.02083333333333 0 0 1 -44.45833333333333 43.291666666666664 93.95833333333333 93.95833333333333 0 0 1 -64.9375 0.3333333333333333 77.08333333333333 77.08333333333333 0 0 1 -23 -14.479166666666664 55.25 55.25 0 0 1 -11.749999999999998 -15.520833333333332 87.9375 87.9375 0 0 1 -7.666666666666666 -20.958333333333332H199.79166666666666c-0.7916666666666666 2.4999999999999996 -1.6666666666666665 4.958333333333333 -2.7083333333333335 7.333333333333332zm302.10416666666663 -36.625a80.1875 80.1875 0 0 0 -1.7083333333333333 -9.895833333333332l-200.70833333333334 -0.16666666666666666a81.91666666666666 81.91666666666666 0 0 1 23.8125 -48.916666666666664c7.562499999999999 -7.291666666666666 16.458333333333332 -13.020833333333332 26.25 -16.854166666666668a82.70833333333333 82.70833333333333 0 0 1 93.41666666666666 19.937499999999996l31.687499999999996 -31.041666666666664a118.75 118.75 0 0 0 -40.041666666666664 -28.270833333333332 130.89583333333334 130.89583333333334 0 0 0 -53 -10.208333333333332 132.29166666666666 132.29166666666666 0 0 0 -50.10416666666666 9.520833333333334 125.14583333333331 125.14583333333331 0 0 0 -40.895833333333336 26.583333333333332 127.95833333333333 127.95833333333333 0 0 0 -27.604166666666664 40.416666666666664 122.125 122.125 0 0 0 -9.708333333333334 38.833333333333336h-1.3125a122.02083333333333 122.02083333333333 0 0 0 -9.729166666666666 -38.854166666666664 127.70833333333333 127.70833333333333 0 0 0 -27.604166666666664 -40.395833333333336A125 125 0 0 0 171.04166666666669 132.08333333333331a139.54166666666666 139.54166666666666 0 0 0 -103.10416666666666 0.6458333333333333A118.91666666666666 118.91666666666666 0 0 0 27.916666666666668 161.04166666666666l31.666666666666664 31.041666666666664a86.79166666666667 86.79166666666667 0 0 1 93.41666666666666 -19.958333333333332c9.791666666666666 3.833333333333333 18.708333333333332 9.583333333333334 26.25 16.875 7.666666666666666 7.499999999999999 13.75 16.5 17.895833333333332 26.416666666666664 3.0416666666666665 7.166666666666666 5.041666666666666 14.749999999999998 5.937499999999999 22.5l-200.72916666666666 0.16666666666666666A98.20833333333334 98.20833333333334 0 0 0 0 259.5208333333333a135.27083333333334 135.27083333333334 0 0 0 7.187499999999999 44.31249999999999 102.64583333333331 102.64583333333331 0 0 0 22.5 37.14583333333333c11 11.666666666666668 24.374999999999996 20.833333333333332 39.166666666666664 26.937499999999996a134.45833333333331 134.45833333333331 0 0 0 52.166666666666664 9.520833333333334c17.166666666666664 0.10416666666666666 34.166666666666664 -3.1249999999999996 50.08333333333333 -9.520833333333334a124.70833333333331 124.70833333333331 0 0 0 40.916666666666664 -26.604166666666664 127.41666666666666 127.41666666666666 0 0 0 35.125 -64.08333333333333h5.6875a127.70833333333333 127.70833333333333 0 0 0 35.125 64.10416666666666 124.79166666666666 124.79166666666666 0 0 0 40.916666666666664 26.583333333333332 132.1875 132.1875 0 0 0 50.10416666666666 9.520833333333334 134.375 134.375 0 0 0 52.12499999999999 -9.520833333333334 112.91666666666666 112.91666666666666 0 0 0 39.20833333333333 -26.937499999999996 102.66666666666666 102.66666666666666 0 0 0 22.5 -37.14583333333333A135.83333333333331 135.83333333333331 0 0 0 500 259.5208333333333a99.10416666666666 99.10416666666666 0 0 0 -0.8125 -11.541666666666668z" fill="#ffffff" stroke-width="20.8333"></path>
</svg>